# xmcd
#
# Track frame offsets:
#	150
#	13366
#	27391
#	46141
#	51494
#	61527
#	74373
#	87273
#	95823
#	109145
#	126718
#	139243
#	153832
#	170482
#
# Disc length: 2432 seconds
#
# Revision: 1
# Processed by: cddbd v1.5.2PL0 Copyright (c) Steve Scherf et al.
# Submitted via: audiograbber 1.83.01
#
DISCID=ca097e0e
DTITLE=Volkstänze - Gauverband
DYEAR=2014
DGENRE=Brauchtum
TTITLE0=Stettiner Kreuzpolka
TTITLE1=Sternpolka
TTITLE2=Lauterbacher (Odenwald)
TTITLE3=Salzburger Dreher
TTITLE4=Kreuzpolka aus der Ramsau
TTITLE5=Fieberbrunner Sautanz
TTITLE6=Rheinländer
TTITLE7=Bauernmadl putz di
TTITLE8=Masianer
TTITLE9=Landler aus Kautzen
TTITLE10=Schedische Maskerade
TTITLE11=Bauernmadl mit Walzer
TTITLE12=Woaf
TTITLE13=Dirndl Mit'm roten Mieder (Neuboarischer)
EXTD=
EXTT0=
EXTT1=
EXTT2=
EXTT3=
EXTT4=
EXTT5=
EXTT6=
EXTT7=
EXTT8=
EXTT9=
EXTT10=
EXTT11=
EXTT12=
EXTT13=
PLAYORDER=
